<svg width="40" height="40" viewBox="0 0 40 40" fill="none" xmlns="http://www.w3.org/2000/svg">
<g clip-path="url(#clip0_1159_2258)">
<path d="M20 40C31.0457 40 40 31.0457 40 20C40 8.9543 31.0457 0 20 0C8.9543 0 0 8.9543 0 20C0 31.0457 8.9543 40 20 40Z" fill="#004D61"/>
<path d="M11.6743 13.9736L13.5539 29.3112C13.6634 30.2145 14.4298 30.8897 15.3376 30.8897H24.6625C25.5703 30.8897 26.3367 30.2145 26.4462 29.3112L28.3258 13.9736H11.6743ZM16.834 28.4353C16.834 28.4353 16.8066 28.4353 16.7884 28.4353C16.5146 28.4353 16.282 28.2255 16.2592 27.9472L15.3696 16.9983C15.3468 16.7063 15.5657 16.4508 15.8577 16.428C16.1497 16.4052 16.4052 16.6242 16.428 16.9162L17.3176 27.8651C17.3404 28.157 17.1214 28.4125 16.8294 28.4353H16.834ZM20.5292 27.9061C20.5292 28.1981 20.292 28.4353 20 28.4353C19.7081 28.4353 19.4708 28.1981 19.4708 27.9061V16.9572C19.4708 16.6652 19.7081 16.428 20 16.428C20.292 16.428 20.5292 16.6652 20.5292 16.9572V27.9061ZM24.6214 16.9983L23.7318 27.9472C23.709 28.2255 23.4763 28.4353 23.2026 28.4353C23.1889 28.4353 23.1752 28.4353 23.157 28.4353C22.865 28.4125 22.646 28.157 22.6688 27.8651L23.5584 16.9162C23.5813 16.6242 23.8367 16.4052 24.1287 16.428C24.4207 16.4508 24.6396 16.7063 24.6168 16.9983H24.6214Z" fill="white"/>
<path d="M29.0283 11.4781H24.1971C23.9781 11.4781 23.7865 11.3412 23.7135 11.1359L23.3348 10.0456C23.1387 9.489 22.614 9.11035 22.021 9.11035H17.979C17.3859 9.11035 16.8613 9.48444 16.6651 10.0456L16.2865 11.1359C16.2135 11.3412 16.0219 11.4781 15.8029 11.4781H10.9717C10.7253 11.4781 10.5292 11.6742 10.5292 11.9206V12.7737C10.5292 13.02 10.7253 13.2162 10.9717 13.2162H29.0283C29.2746 13.2162 29.4708 13.02 29.4708 12.7737V11.9206C29.4708 11.6742 29.2746 11.4781 29.0283 11.4781ZM17.8421 10.4607C17.8741 10.374 17.9562 10.3147 18.0474 10.3147H21.9525C22.0438 10.3147 22.1305 10.374 22.1578 10.4607L22.5137 11.4781H17.4863L17.8421 10.4607Z" fill="white"/>
</g>
<defs>
<clipPath id="clip0_1159_2258">
<rect width="40" height="40" fill="white"/>
</clipPath>
</defs>
</svg>
