<svg width="40" height="40" viewBox="0 0 40 40" fill="none" xmlns="http://www.w3.org/2000/svg">
<g clip-path="url(#clip0_1159_2255)">
<path d="M20 40C31.0457 40 40 31.0457 40 20C40 8.9543 31.0457 0 20 0C8.9543 0 0 8.9543 0 20C0 31.0457 8.9543 40 20 40Z" fill="#004D61"/>
<path d="M29.7445 10.6022L29.3932 10.2509C28.5082 9.3659 27.0712 9.3659 26.1816 10.2509L11.5237 24.9088C11.5237 24.9088 11.5146 24.9179 11.5146 24.9225C11.4918 24.9498 11.469 24.9772 11.4553 25.0137C11.4553 25.0137 11.4462 25.0228 11.4462 25.0274L10.5292 27.4863L9.61222 29.9407C9.5666 30.0685 9.59398 30.2053 9.68978 30.3011C9.75821 30.3695 9.84489 30.4015 9.93613 30.4015C9.97263 30.4015 10.0182 30.3924 10.0547 30.3787L12.5091 29.4617L14.9635 28.5402H14.9726L14.9818 28.531C15.0182 28.5128 15.0502 28.4945 15.0776 28.4672C15.0776 28.4672 15.0867 28.4672 15.0867 28.4581L29.7491 13.7956C30.1779 13.3668 30.4151 12.7966 30.4151 12.1852C30.4151 11.5739 30.1825 11.0128 29.7491 10.5794L29.7445 10.6022ZM10.5109 29.4845L10.9808 28.2345L11.7655 29.0192L10.5109 29.4845ZM12.4681 28.75L11.2409 27.5228L11.8978 25.771L14.2199 28.0977L12.4681 28.75ZM27.9745 14.6122L25.3832 12.021L25.9307 11.4736L28.5219 14.0648L27.9745 14.6122ZM29.2609 13.3258L29.01 13.5812L26.4188 10.99L26.6697 10.7345C27.2901 10.1186 28.2938 10.1186 28.9142 10.7345L29.2655 11.0904C29.5666 11.3869 29.7308 11.7883 29.7308 12.2081C29.7308 12.6278 29.5666 13.0292 29.2655 13.3303L29.2609 13.3258Z" fill="white"/>
</g>
<defs>
<clipPath id="clip0_1159_2255">
<rect width="40" height="40" fill="white"/>
</clipPath>
</defs>
</svg>
